REM DIRINDEX 1\2\4\18,1\2\4\19,1\2\5\20,1\2\5\21,1\2\6\22,1\2\6\23,1\2\7\24,1\2\8\25,1\2\9\26,1\2\10\27,1\2\10\28,1\3\11\29,1\3\11\30,1\3\11\31,1\3\11\32,1\3\12\33,1\3\12\34,1\3\12\35,1\3\12\36,1\3\13\37,1\3\13\38,1\3\13\39,1\3\13\40,1\3\14\41,1\3\14\42,1\3\15\43,1\3\15\44,1\3\16\45,1\3\16\46,1\3\17\47,1\3\17\48,1\3\17\49,1\3\17\50
REM DIRNAME folder01,folder02,folder03,folder04,folder05,folder06,folder07,folder08,folder09,folder10,folder11,folder12,folder13,folder14,folder15,folder16,folder17,folder18,folder19,folder20,folder21,folder22,folder23,folder24,folder25,folder26,folder27,folder28,folder29,folder30,folder31,folder32,folder33,folder34,folder35,folder36,folder37,folder38,folder39,folder40,folder41,folder42,folder43,folder44,folder45,folder46,folder47,folder48,folder49,folder50
TITLE ""
FILE "12.mp3" MP3
  TRACK 01 AUDIO
    TITLE "0:"
    INDEX 01 00:00:00
  TRACK 02 AUDIO
    TITLE "29:cjc135_5848"
    INDEX 01 00:00:15
  TRACK 03 AUDIO
    TITLE "0:"
    INDEX 01 00:01:40
  TRACK 04 AUDIO
    TITLE "30:cjc135_5849"
    INDEX 01 00:02:18
  TRACK 05 AUDIO
    TITLE "0:"
    INDEX 01 00:04:33
  TRACK 06 AUDIO
    TITLE "31:cjc135_5850"
    INDEX 01 00:04:60
  TRACK 07 AUDIO
    TITLE "0:"
    INDEX 01 00:06:67
  TRACK 08 AUDIO
    TITLE "32:cjc135_5851"
    INDEX 01 00:07:15
  TRACK 09 AUDIO
    TITLE "0:"
    INDEX 01 00:09:20
  TRACK 10 AUDIO
    TITLE "29:cjc135_5852"
    INDEX 01 00:10:19
  TRACK 11 AUDIO
    TITLE "0:"
    INDEX 01 00:11:35
  TRACK 12 AUDIO
    TITLE "30:cjc135_5853"
    INDEX 01 00:12:12
  TRACK 13 AUDIO
    TITLE "0:"
    INDEX 01 00:15:15
  TRACK 14 AUDIO
    TITLE "31:cjc135_5854"
    INDEX 01 00:15:38
  TRACK 15 AUDIO
    TITLE "0:"
    INDEX 01 00:18:07
  TRACK 16 AUDIO
    TITLE "32:cjc135_5855"
    INDEX 01 00:18:29
  TRACK 17 AUDIO
    TITLE "0:"
    INDEX 01 00:20:73
  TRACK 18 AUDIO
    TITLE "29:cjc135_5856"
    INDEX 01 00:21:72
  TRACK 19 AUDIO
    TITLE "0:"
    INDEX 01 00:23:16
  TRACK 20 AUDIO
    TITLE "30:cjc135_5857"
    INDEX 01 00:23:67
  TRACK 21 AUDIO
    TITLE "0:"
    INDEX 01 00:26:54
  TRACK 22 AUDIO
    TITLE "31:cjc135_5858"
    INDEX 01 00:27:08
  TRACK 23 AUDIO
    TITLE "0:"
    INDEX 01 00:29:40
  TRACK 24 AUDIO
    TITLE "32:cjc135_5859"
    INDEX 01 00:29:68
  TRACK 25 AUDIO
    TITLE "0:"
    INDEX 01 00:32:25
  TRACK 26 AUDIO
    TITLE "29:cjc135_5860"
    INDEX 01 00:33:26
  TRACK 27 AUDIO
    TITLE "0:"
    INDEX 01 00:34:36
  TRACK 28 AUDIO
    TITLE "30:cjc135_5861"
    INDEX 01 00:35:12
  TRACK 29 AUDIO
    TITLE "0:"
    INDEX 01 00:37:54
  TRACK 30 AUDIO
    TITLE "31:cjc135_5862"
    INDEX 01 00:38:04
  TRACK 31 AUDIO
    TITLE "0:"
    INDEX 01 00:40:07
  TRACK 32 AUDIO
    TITLE "32:cjc135_5863"
    INDEX 01 00:40:32
  TRACK 33 AUDIO
    TITLE "0:"
    INDEX 01 00:42:31
  TRACK 34 AUDIO
    TITLE "29:cjc135_5864"
    INDEX 01 00:43:35
  TRACK 35 AUDIO
    TITLE "0:"
    INDEX 01 00:44:50
  TRACK 36 AUDIO
    TITLE "30:cjc135_5865"
    INDEX 01 00:45:24
  TRACK 37 AUDIO
    TITLE "0:"
    INDEX 01 00:46:64
  TRACK 38 AUDIO
    TITLE "31:cjc135_5866"
    INDEX 01 00:47:15
  TRACK 39 AUDIO
    TITLE "0:"
    INDEX 01 00:49:02
  TRACK 40 AUDIO
    TITLE "32:cjc135_5867"
    INDEX 01 00:49:27
  TRACK 41 AUDIO
    TITLE "0:"
    INDEX 01 00:51:15
  TRACK 42 AUDIO
    TITLE "29:cjc135_5868"
    INDEX 01 00:52:14
  TRACK 43 AUDIO
    TITLE "0:"
    INDEX 01 00:53:25
  TRACK 44 AUDIO
    TITLE "30:cjc135_5869"
    INDEX 01 00:53:72
  TRACK 45 AUDIO
    TITLE "0:"
    INDEX 01 00:56:08
  TRACK 46 AUDIO
    TITLE "31:cjc135_5870"
    INDEX 01 00:56:35
  TRACK 47 AUDIO
    TITLE "0:"
    INDEX 01 00:58:32
  TRACK 48 AUDIO
    TITLE "32:cjc135_5871"
    INDEX 01 00:58:58
  TRACK 49 AUDIO
    TITLE "0:"
    INDEX 01 01:00:53
  TRACK 50 AUDIO
    TITLE "29:cjc135_5872"
    INDEX 01 01:01:54
  TRACK 51 AUDIO
    TITLE "0:"
    INDEX 01 01:02:61
  TRACK 52 AUDIO
    TITLE "30:cjc135_5873"
    INDEX 01 01:03:35
  TRACK 53 AUDIO
    TITLE "0:"
    INDEX 01 01:05:58
  TRACK 54 AUDIO
    TITLE "31:cjc135_5874"
    INDEX 01 01:06:10
  TRACK 55 AUDIO
    TITLE "0:"
    INDEX 01 01:08:46
  TRACK 56 AUDIO
    TITLE "32:cjc135_5875"
    INDEX 01 01:08:70
  TRACK 57 AUDIO
    TITLE "0:"
    INDEX 01 01:11:31
  TRACK 58 AUDIO
    TITLE "29:cjc135_5876"
    INDEX 01 01:12:30
  TRACK 59 AUDIO
    TITLE "0:"
    INDEX 01 01:13:47
  TRACK 60 AUDIO
    TITLE "30:cjc135_5877"
    INDEX 01 01:14:25
  TRACK 61 AUDIO
    TITLE "0:"
    INDEX 01 01:17:32
  TRACK 62 AUDIO
    TITLE "31:cjc135_5878"
    INDEX 01 01:17:57
  TRACK 63 AUDIO
    TITLE "0:"
    INDEX 01 01:20:73
  TRACK 64 AUDIO
    TITLE "32:cjc135_5879"
    INDEX 01 01:21:21
  TRACK 65 AUDIO
    TITLE "0:"
    INDEX 01 01:24:37
  TRACK 66 AUDIO
    TITLE "29:cjc135_5880"
    INDEX 01 01:25:41
  TRACK 67 AUDIO
    TITLE "0:"
    INDEX 01 01:26:46
  TRACK 68 AUDIO
    TITLE "30:cjc135_5881"
    INDEX 01 01:27:22
  TRACK 69 AUDIO
    TITLE "0:"
    INDEX 01 01:29:29
  TRACK 70 AUDIO
    TITLE "31:cjc135_5882"
    INDEX 01 01:29:54
  TRACK 71 AUDIO
    TITLE "0:"
    INDEX 01 01:32:04
  TRACK 72 AUDIO
    TITLE "32:cjc135_5883"
    INDEX 01 01:32:29
  TRACK 73 AUDIO
    TITLE "0:"
    INDEX 01 01:34:55
  TRACK 74 AUDIO
    TITLE "29:cjc135_5884"
    INDEX 01 01:35:55
  TRACK 75 AUDIO
    TITLE "0:"
    INDEX 01 01:36:64
  TRACK 76 AUDIO
    TITLE "30:cjc135_5885"
    INDEX 01 01:37:42
  TRACK 77 AUDIO
    TITLE "0:"
    INDEX 01 01:39:74
  TRACK 78 AUDIO
    TITLE "31:cjc135_5886"
    INDEX 01 01:40:23
  TRACK 79 AUDIO
    TITLE "0:"
    INDEX 01 01:43:13
  TRACK 80 AUDIO
    TITLE "32:cjc135_5887"
    INDEX 01 01:43:39
  TRACK 81 AUDIO
    TITLE "0:"
    INDEX 01 01:46:31
  TRACK 82 AUDIO
    TITLE "29:cjc135_5888"
    INDEX 01 01:47:33
  TRACK 83 AUDIO
    TITLE "0:"
    INDEX 01 01:48:67
  TRACK 84 AUDIO
    TITLE "30:cjc135_5889"
    INDEX 01 01:49:41
  TRACK 85 AUDIO
    TITLE "0:"
    INDEX 01 01:52:55
  TRACK 86 AUDIO
    TITLE "31:cjc135_5890"
    INDEX 01 01:53:10
  TRACK 87 AUDIO
    TITLE "0:"
    INDEX 01 01:55:40
  TRACK 88 AUDIO
    TITLE "32:cjc135_5891"
    INDEX 01 01:55:65
  TRACK 89 AUDIO
    TITLE "0:"
    INDEX 01 01:58:25
  TRACK 90 AUDIO
    TITLE "29:cjc135_5892"
    INDEX 01 01:59:24
  TRACK 91 AUDIO
    TITLE "0:"
    INDEX 01 02:00:43
  TRACK 92 AUDIO
    TITLE "30:cjc135_5893"
    INDEX 01 02:01:17
  TRACK 93 AUDIO
    TITLE "0:"
    INDEX 01 02:03:36
  TRACK 94 AUDIO
    TITLE "31:cjc135_5894"
    INDEX 01 02:03:57
  TRACK 95 AUDIO
    TITLE "0:"
    INDEX 01 02:06:20
  TRACK 96 AUDIO
    TITLE "32:cjc135_5895"
    INDEX 01 02:06:40
  TRACK 97 AUDIO
    TITLE "0:"
    INDEX 01 02:09:01
  TRACK 98 AUDIO
    TITLE "29:cjc135_5896"
    INDEX 01 02:10:00
  TRACK 99 AUDIO
    TITLE "0:"
    INDEX 01 02:10:71
  TRACK 100 AUDIO
    TITLE "30:cjc135_5897"
    INDEX 01 02:11:47
  TRACK 101 AUDIO
    TITLE "0:"
    INDEX 01 02:15:37
  TRACK 102 AUDIO
    TITLE "31:cjc135_5898"
    INDEX 01 02:15:62
  TRACK 103 AUDIO
    TITLE "0:"
    INDEX 01 02:18:55
  TRACK 104 AUDIO
    TITLE "32:cjc135_5899"
    INDEX 01 02:19:05
  TRACK 105 AUDIO
    TITLE "0:"
    INDEX 01 02:21:71
  TRACK 106 AUDIO
    TITLE "29:cjc135_5900"
    INDEX 01 02:22:72
  TRACK 107 AUDIO
    TITLE "0:"
    INDEX 01 02:24:28
  TRACK 108 AUDIO
    TITLE "30:cjc135_5901"
    INDEX 01 02:25:02
  TRACK 109 AUDIO
    TITLE "0:"
    INDEX 01 02:27:13
  TRACK 110 AUDIO
    TITLE "31:cjc135_5902"
    INDEX 01 02:27:40
  TRACK 111 AUDIO
    TITLE "0:"
    INDEX 01 02:30:19
  TRACK 112 AUDIO
    TITLE "32:cjc135_5903"
    INDEX 01 02:30:44
  TRACK 113 AUDIO
    TITLE "0:"
    INDEX 01 02:33:25
  TRACK 114 AUDIO
    TITLE "29:cjc135_5904"
    INDEX 01 02:34:26
  TRACK 115 AUDIO
    TITLE "0:"
    INDEX 01 02:35:36
  TRACK 116 AUDIO
    TITLE "30:cjc135_5905"
    INDEX 01 02:36:08
  TRACK 117 AUDIO
    TITLE "0:"
    INDEX 01 02:38:50
  TRACK 118 AUDIO
    TITLE "31:cjc135_5906"
    INDEX 01 02:38:71
  TRACK 119 AUDIO
    TITLE "0:"
    INDEX 01 02:40:70
  TRACK 120 AUDIO
    TITLE "32:cjc135_5907"
    INDEX 01 02:41:19
  TRACK 121 AUDIO
    TITLE "0:"
    INDEX 01 02:43:19
  TRACK 122 AUDIO
    TITLE "29:cjc135_5908"
    INDEX 01 02:44:19
  TRACK 123 AUDIO
    TITLE "0:"
    INDEX 01 02:45:34
  TRACK 124 AUDIO
    TITLE "30:cjc135_5909"
    INDEX 01 02:46:10
  TRACK 125 AUDIO
    TITLE "0:"
    INDEX 01 02:49:61
  TRACK 126 AUDIO
    TITLE "31:cjc135_5910"
    INDEX 01 02:50:10
  TRACK 127 AUDIO
    TITLE "0:"
    INDEX 01 02:52:52
  TRACK 128 AUDIO
    TITLE "32:cjc135_5911"
    INDEX 01 02:53:02
  TRACK 129 AUDIO
    TITLE "0:"
    INDEX 01 02:55:46
  TRACK 130 AUDIO
    TITLE "29:cjc135_5912"
    INDEX 01 02:56:46
  TRACK 131 AUDIO
    TITLE "0:"
    INDEX 01 02:57:49
  TRACK 132 AUDIO
    TITLE "30:cjc135_5913"
    INDEX 01 02:58:29
  TRACK 133 AUDIO
    TITLE "0:"
    INDEX 01 03:00:10
  TRACK 134 AUDIO
    TITLE "31:cjc135_5914"
    INDEX 01 03:00:36
  TRACK 135 AUDIO
    TITLE "0:"
    INDEX 01 03:02:05
  TRACK 136 AUDIO
    TITLE "32:cjc135_5915"
    INDEX 01 03:02:30
  TRACK 137 AUDIO
    TITLE "0:"
    INDEX 01 03:03:73
  TRACK 138 AUDIO
    TITLE "29:cjc135_5916"
    INDEX 01 03:04:74
  TRACK 139 AUDIO
    TITLE "0:"
    INDEX 01 03:06:05
  TRACK 140 AUDIO
    TITLE "30:cjc135_5917"
    INDEX 01 03:06:54
  TRACK 141 AUDIO
    TITLE "0:"
    INDEX 01 03:08:53
  TRACK 142 AUDIO
    TITLE "31:cjc135_5918"
    INDEX 01 03:09:05
  TRACK 143 AUDIO
    TITLE "0:"
    INDEX 01 03:11:16
  TRACK 144 AUDIO
    TITLE "32:cjc135_5919"
    INDEX 01 03:11:39
  TRACK 145 AUDIO
    TITLE "0:"
    INDEX 01 03:13:50
  TRACK 146 AUDIO
    TITLE "29:cjc135_5920"
    INDEX 01 03:14:49
  TRACK 147 AUDIO
    TITLE "0:"
    INDEX 01 03:15:57
  TRACK 148 AUDIO
    TITLE "30:cjc135_5921"
    INDEX 01 03:16:33
  TRACK 149 AUDIO
    TITLE "0:"
    INDEX 01 03:19:29
  TRACK 150 AUDIO
    TITLE "31:cjc135_5922"
    INDEX 01 03:19:54
  TRACK 151 AUDIO
    TITLE "0:"
    INDEX 01 03:21:73
  TRACK 152 AUDIO
    TITLE "32:cjc135_5923"
    INDEX 01 03:22:25
  TRACK 153 AUDIO
    TITLE "0:"
    INDEX 01 03:24:44
  TRACK 154 AUDIO
    TITLE "29:cjc135_5924"
    INDEX 01 03:25:45
  TRACK 155 AUDIO
    TITLE "0:"
    INDEX 01 03:26:51
  TRACK 156 AUDIO
    TITLE "30:cjc135_5925"
    INDEX 01 03:27:28
  TRACK 157 AUDIO
    TITLE "0:"
    INDEX 01 03:29:18
  TRACK 158 AUDIO
    TITLE "31:cjc135_5926"
    INDEX 01 03:29:41
  TRACK 159 AUDIO
    TITLE "0:"
    INDEX 01 03:31:22
  TRACK 160 AUDIO
    TITLE "32:cjc135_5927"
    INDEX 01 03:31:48
  TRACK 161 AUDIO
    TITLE "0:"
    INDEX 01 03:33:29
  TRACK 162 AUDIO
    TITLE "29:cjc135_5928"
    INDEX 01 03:34:27
  TRACK 163 AUDIO
    TITLE "0:"
    INDEX 01 03:35:44
  TRACK 164 AUDIO
    TITLE "30:cjc135_5929"
    INDEX 01 03:36:20
  TRACK 165 AUDIO
    TITLE "0:"
    INDEX 01 03:38:26
  TRACK 166 AUDIO
    TITLE "31:cjc135_5930"
    INDEX 01 03:38:50
  TRACK 167 AUDIO
    TITLE "0:"
    INDEX 01 03:40:43
  TRACK 168 AUDIO
    TITLE "32:cjc135_5931"
    INDEX 01 03:40:66
  TRACK 169 AUDIO
    TITLE "0:"
    INDEX 01 03:42:61
  TRACK 170 AUDIO
    TITLE "29:cjc135_5932"
    INDEX 01 03:43:59
  TRACK 171 AUDIO
    TITLE "0:"
    INDEX 01 03:45:01
  TRACK 172 AUDIO
    TITLE "30:cjc135_5933"
    INDEX 01 03:45:52
  TRACK 173 AUDIO
    TITLE "0:"
    INDEX 01 03:49:09
  TRACK 174 AUDIO
    TITLE "31:cjc135_5934"
    INDEX 01 03:49:32
  TRACK 175 AUDIO
    TITLE "0:"
    INDEX 01 03:52:28
  TRACK 176 AUDIO
    TITLE "32:cjc135_5935"
    INDEX 01 03:52:54
  TRACK 177 AUDIO
    TITLE "0:"
    INDEX 01 03:55:52
  TRACK 178 AUDIO
    TITLE "29:cjc135_5936"
    INDEX 01 03:56:52
  TRACK 179 AUDIO
    TITLE "0:"
    INDEX 01 03:57:49
  TRACK 180 AUDIO
    TITLE "30:cjc135_5937"
    INDEX 01 03:58:23
  TRACK 181 AUDIO
    TITLE "0:"
    INDEX 01 04:00:65
  TRACK 182 AUDIO
    TITLE "31:cjc135_5938"
    INDEX 01 04:01:16
  TRACK 183 AUDIO
    TITLE "0:"
    INDEX 01 04:03:54
  TRACK 184 AUDIO
    TITLE "32:cjc135_5939"
    INDEX 01 04:04:08
  TRACK 185 AUDIO
    TITLE "0:"
    INDEX 01 04:06:46
  TRACK 186 AUDIO
    TITLE "29:cjc135_5940"
    INDEX 01 04:07:50
  TRACK 187 AUDIO
    TITLE "0:"
    INDEX 01 04:08:43
  TRACK 188 AUDIO
    TITLE "30:cjc135_5941"
    INDEX 01 04:09:19
  TRACK 189 AUDIO
    TITLE "0:"
    INDEX 01 04:11:02
  TRACK 190 AUDIO
    TITLE "31:cjc135_5942"
    INDEX 01 04:11:28
  TRACK 191 AUDIO
    TITLE "0:"
    INDEX 01 04:12:49
  TRACK 192 AUDIO
    TITLE "32:cjc135_5943"
    INDEX 01 04:13:03
  TRACK 193 AUDIO
    TITLE "0:"
    INDEX 01 04:14:26
  TRACK 194 AUDIO
    TITLE "29:cjc135_5944"
    INDEX 01 04:15:27
  TRACK 195 AUDIO
    TITLE "0:"
    INDEX 01 04:16:37
  TRACK 196 AUDIO
    TITLE "30:cjc135_5945"
    INDEX 01 04:17:15
  TRACK 197 AUDIO
    TITLE "0:"
    INDEX 01 04:20:17
  TRACK 198 AUDIO
    TITLE "31:cjc135_5946"
    INDEX 01 04:20:42
  TRACK 199 AUDIO
    TITLE "0:"
    INDEX 01 04:23:37
  TRACK 200 AUDIO
    TITLE "32:cjc135_5947"
    INDEX 01 04:23:62
  TRACK 201 AUDIO
    TITLE "0:"
    INDEX 01 04:26:57
  TRACK 202 AUDIO
    TITLE "29:cjc135_5948"
    INDEX 01 04:27:58
  TRACK 203 AUDIO
    TITLE "0:"
    INDEX 01 04:29:08
  TRACK 204 AUDIO
    TITLE "30:cjc135_5949"
    INDEX 01 04:29:57
  TRACK 205 AUDIO
    TITLE "0:"
    INDEX 01 04:31:52
  TRACK 206 AUDIO
    TITLE "31:cjc135_5950"
    INDEX 01 04:32:04
  TRACK 207 AUDIO
    TITLE "0:"
    INDEX 01 04:34:13
  TRACK 208 AUDIO
    TITLE "32:cjc135_5951"
    INDEX 01 04:34:41
  TRACK 209 AUDIO
    TITLE "0:"
    INDEX 01 04:36:49
  TRACK 210 AUDIO
    TITLE "29:cjc135_5952"
    INDEX 01 04:37:51
  TRACK 211 AUDIO
    TITLE "0:"
    INDEX 01 04:38:58
  TRACK 212 AUDIO
    TITLE "30:cjc135_5953"
    INDEX 01 04:39:34
  TRACK 213 AUDIO
    TITLE "0:"
    INDEX 01 04:41:25
  TRACK 214 AUDIO
    TITLE "31:cjc135_5954"
    INDEX 01 04:41:50
  TRACK 215 AUDIO
    TITLE "0:"
    INDEX 01 04:43:47
  TRACK 216 AUDIO
    TITLE "32:cjc135_5955"
    INDEX 01 04:43:73
  TRACK 217 AUDIO
    TITLE "0:"
    INDEX 01 04:45:70
  TRACK 218 AUDIO
    TITLE "29:cjc135_5956"
    INDEX 01 04:46:69
  TRACK 219 AUDIO
    TITLE "0:"
    INDEX 01 04:48:05
  TRACK 220 AUDIO
    TITLE "30:cjc135_5957"
    INDEX 01 04:48:54
  TRACK 221 AUDIO
    TITLE "0:"
    INDEX 01 04:51:04
  TRACK 222 AUDIO
    TITLE "31:cjc135_5958"
    INDEX 01 04:51:29
  TRACK 223 AUDIO
    TITLE "0:"
    INDEX 01 04:53:50
  TRACK 224 AUDIO
    TITLE "32:cjc135_5959"
    INDEX 01 04:54:04
  TRACK 225 AUDIO
    TITLE "0:"
    INDEX 01 04:56:26
  TRACK 226 AUDIO
    TITLE "29:cjc135_5960"
    INDEX 01 04:57:28
  TRACK 227 AUDIO
    TITLE "0:"
    INDEX 01 04:58:37
  TRACK 228 AUDIO
    TITLE "30:cjc135_5961"
    INDEX 01 04:59:13
  TRACK 229 AUDIO
    TITLE "0:"
    INDEX 01 05:01:55
  TRACK 230 AUDIO
    TITLE "31:cjc135_5962"
    INDEX 01 05:02:02
  TRACK 231 AUDIO
    TITLE "0:"
    INDEX 01 05:03:64
  TRACK 232 AUDIO
    TITLE "32:cjc135_5963"
    INDEX 01 05:04:14
  TRACK 233 AUDIO
    TITLE "0:"
    INDEX 01 05:06:01
  TRACK 234 AUDIO
    TITLE "29:cjc135_5964"
    INDEX 01 05:07:03
  TRACK 235 AUDIO
    TITLE "0:"
    INDEX 01 05:08:10
  TRACK 236 AUDIO
    TITLE "30:cjc135_5965"
    INDEX 01 05:08:65
  TRACK 237 AUDIO
    TITLE "0:"
    INDEX 01 05:10:27
  TRACK 238 AUDIO
    TITLE "31:cjc135_5966"
    INDEX 01 05:10:54
  TRACK 239 AUDIO
    TITLE "0:"
    INDEX 01 05:12:29
  TRACK 240 AUDIO
    TITLE "32:cjc135_5967"
    INDEX 01 05:12:55
  TRACK 241 AUDIO
    TITLE "0:"
    INDEX 01 05:14:28
  TRACK 242 AUDIO
    TITLE "29:cjc135_5968"
    INDEX 01 05:15:30
  TRACK 243 AUDIO
    TITLE "0:"
    INDEX 01 05:16:25
  TRACK 244 AUDIO
    TITLE "30:cjc135_5969"
    INDEX 01 05:17:03
  TRACK 245 AUDIO
    TITLE "0:"
    INDEX 01 05:19:29
  TRACK 246 AUDIO
    TITLE "31:cjc135_5970"
    INDEX 01 05:19:53
  TRACK 247 AUDIO
    TITLE "0:"
    INDEX 01 05:21:46
  TRACK 248 AUDIO
    TITLE "32:cjc135_5971"
    INDEX 01 05:21:71
  TRACK 249 AUDIO
    TITLE "0:"
    INDEX 01 05:23:68
  TRACK 250 AUDIO
    TITLE "29:cjc135_5972"
    INDEX 01 05:24:70
  TRACK 251 AUDIO
    TITLE "0:"
    INDEX 01 05:26:10
  TRACK 252 AUDIO
    TITLE "30:cjc135_5973"
    INDEX 01 05:26:61
  TRACK 253 AUDIO
    TITLE "0:"
    INDEX 01 05:28:44
  TRACK 254 AUDIO
    TITLE "31:cjc135_5974"
    INDEX 01 05:28:68
  TRACK 255 AUDIO
    TITLE "0:"
    INDEX 01 05:30:49
  TRACK 256 AUDIO
    TITLE "32:cjc135_5975"
    INDEX 01 05:30:72
  TRACK 257 AUDIO
    TITLE "0:"
    INDEX 01 05:32:52
  TRACK 258 AUDIO
    TITLE "29:cjc135_5976"
    INDEX 01 05:33:53
  TRACK 259 AUDIO
    TITLE "0:"
    INDEX 01 05:34:68
  TRACK 260 AUDIO
    TITLE "30:cjc135_5977"
    INDEX 01 05:35:42
  TRACK 261 AUDIO
    TITLE "0:"
    INDEX 01 05:37:70
  TRACK 262 AUDIO
    TITLE "31:cjc135_5978"
    INDEX 01 05:38:19
  TRACK 263 AUDIO
    TITLE "0:"
    INDEX 01 05:40:67
  TRACK 264 AUDIO
    TITLE "32:cjc135_5979"
    INDEX 01 05:41:17
  TRACK 265 AUDIO
    TITLE "0:"
    INDEX 01 05:43:65
  TRACK 266 AUDIO
    TITLE "29:cjc135_5980"
    INDEX 01 05:44:65
  TRACK 267 AUDIO
    TITLE "0:"
    INDEX 01 05:45:70
  TRACK 268 AUDIO
    TITLE "30:cjc135_5981"
    INDEX 01 05:46:44
  TRACK 269 AUDIO
    TITLE "0:"
    INDEX 01 05:48:49
  TRACK 270 AUDIO
    TITLE "31:cjc135_5982"
    INDEX 01 05:48:74
  TRACK 271 AUDIO
    TITLE "0:"
    INDEX 01 05:50:59
  TRACK 272 AUDIO
    TITLE "32:cjc135_5983"
    INDEX 01 05:51:08
  TRACK 273 AUDIO
    TITLE "0:"
    INDEX 01 05:52:64
  TRACK 274 AUDIO
    TITLE "29:cjc135_5984"
    INDEX 01 05:53:66
  TRACK 275 AUDIO
    TITLE "0:"
    INDEX 01 05:55:04
  TRACK 276 AUDIO
    TITLE "30:cjc135_5985"
    INDEX 01 05:55:55
  TRACK 277 AUDIO
    TITLE "0:"
    INDEX 01 05:57:22
  TRACK 278 AUDIO
    TITLE "31:cjc135_5986"
    INDEX 01 05:57:50
  TRACK 279 AUDIO
    TITLE "0:"
    INDEX 01 05:59:25
  TRACK 280 AUDIO
    TITLE "32:cjc135_5987"
    INDEX 01 05:59:51
  TRACK 281 AUDIO
    TITLE "0:"
    INDEX 01 06:01:28
  TRACK 282 AUDIO
    TITLE "29:cjc135_5988"
    INDEX 01 06:02:25
  TRACK 283 AUDIO
    TITLE "0:"
    INDEX 01 06:03:35
  TRACK 284 AUDIO
    TITLE "30:cjc135_5989"
    INDEX 01 06:04:12
  TRACK 285 AUDIO
    TITLE "0:"
    INDEX 01 06:06:62
  TRACK 286 AUDIO
    TITLE "31:cjc135_5990"
    INDEX 01 06:07:15
  TRACK 287 AUDIO
    TITLE "0:"
    INDEX 01 06:09:12
  TRACK 288 AUDIO
    TITLE "32:cjc135_5991"
    INDEX 01 06:09:39
  TRACK 289 AUDIO
    TITLE "0:"
    INDEX 01 06:11:38
  TRACK 290 AUDIO
    TITLE "29:cjc135_5992"
    INDEX 01 06:12:37
  TRACK 291 AUDIO
    TITLE "0:"
    INDEX 01 06:13:49
  TRACK 292 AUDIO
    TITLE "30:cjc135_5993"
    INDEX 01 06:14:25
  TRACK 293 AUDIO
    TITLE "0:"
    INDEX 01 06:15:34
  TRACK 294 AUDIO
    TITLE "31:cjc135_5994"
    INDEX 01 06:15:61
  TRACK 295 AUDIO
    TITLE "0:"
    INDEX 01 06:17:25
  TRACK 296 AUDIO
    TITLE "32:cjc135_5995"
    INDEX 01 06:17:50
  TRACK 297 AUDIO
    TITLE "0:"
    INDEX 01 06:19:14
  TRACK 298 AUDIO
    TITLE "29:cjc135_5996"
    INDEX 01 06:20:12
  TRACK 299 AUDIO
    TITLE "0:"
    INDEX 01 06:21:19
  TRACK 300 AUDIO
    TITLE "30:cjc135_5997"
    INDEX 01 06:21:70
  TRACK 301 AUDIO
    TITLE "0:"
    INDEX 01 06:24:68
  TRACK 302 AUDIO
    TITLE "31:cjc135_5998"
    INDEX 01 06:25:21
  TRACK 303 AUDIO
    TITLE "0:"
    INDEX 01 06:27:14
  TRACK 304 AUDIO
    TITLE "32:cjc135_5999"
    INDEX 01 06:27:39
  TRACK 305 AUDIO
    TITLE "0:"
    INDEX 01 06:29:34
  TRACK 306 AUDIO
    TITLE "29:cjc135_6000"
    INDEX 01 06:30:35
  TRACK 307 AUDIO
    TITLE "0:"
    INDEX 01 06:31:51
  TRACK 308 AUDIO
    TITLE "30:cjc135_6001"
    INDEX 01 06:32:24
  TRACK 309 AUDIO
    TITLE "0:"
    INDEX 01 06:34:53
  TRACK 310 AUDIO
    TITLE "31:cjc135_6002"
    INDEX 01 06:34:74
  TRACK 311 AUDIO
    TITLE "0:"
    INDEX 01 06:37:28
  TRACK 312 AUDIO
    TITLE "32:cjc135_6003"
    INDEX 01 06:37:53
  TRACK 313 AUDIO
    TITLE "0:"
    INDEX 01 06:40:04
  TRACK 314 AUDIO
    TITLE "29:cjc135_6004"
    INDEX 01 06:41:08
  TRACK 315 AUDIO
    TITLE "0:"
    INDEX 01 06:42:29
  TRACK 316 AUDIO
    TITLE "30:cjc135_6005"
    INDEX 01 06:43:05
  TRACK 317 AUDIO
    TITLE "0:"
    INDEX 01 06:44:67
  TRACK 318 AUDIO
    TITLE "31:cjc135_6006"
    INDEX 01 06:45:17
  TRACK 319 AUDIO
    TITLE "0:"
    INDEX 01 06:47:14
  TRACK 320 AUDIO
    TITLE "32:cjc135_6007"
    INDEX 01 06:47:40
  TRACK 321 AUDIO
    TITLE "0:"
    INDEX 01 06:49:37
  TRACK 322 AUDIO
    TITLE "29:cjc135_6008"
    INDEX 01 06:50:38
  TRACK 323 AUDIO
    TITLE "0:"
    INDEX 01 06:51:53
  TRACK 324 AUDIO
    TITLE "30:cjc135_6009"
    INDEX 01 06:52:27
  TRACK 325 AUDIO
    TITLE "0:"
    INDEX 01 06:55:49
  TRACK 326 AUDIO
    TITLE "31:cjc135_6010"
    INDEX 01 06:56:01
  TRACK 327 AUDIO
    TITLE "0:"
    INDEX 01 06:59:12
  TRACK 328 AUDIO
    TITLE "32:cjc135_6011"
    INDEX 01 06:59:39
  TRACK 329 AUDIO
    TITLE "0:"
    INDEX 01 07:02:49
  TRACK 330 AUDIO
    TITLE "29:cjc135_6012"
    INDEX 01 07:03:52
  TRACK 331 AUDIO
    TITLE "0:"
    INDEX 01 07:04:52
  TRACK 332 AUDIO
    TITLE "30:cjc135_6013"
    INDEX 01 07:05:40
  TRACK 333 AUDIO
    TITLE "0:"
    INDEX 01 07:07:56
  TRACK 334 AUDIO
    TITLE "31:cjc135_6014"
    INDEX 01 07:08:07
  TRACK 335 AUDIO
    TITLE "0:"
    INDEX 01 07:10:13
  TRACK 336 AUDIO
    TITLE "32:cjc135_6015"
    INDEX 01 07:10:37
  TRACK 337 AUDIO
    TITLE "0:"
    INDEX 01 07:12:42
  TRACK 338 AUDIO
    TITLE "29:cjc135_6016"
    INDEX 01 07:13:43
  TRACK 339 AUDIO
    TITLE "0:"
    INDEX 01 07:14:52
  TRACK 340 AUDIO
    TITLE "30:cjc135_6017"
    INDEX 01 07:15:26
  TRACK 341 AUDIO
    TITLE "0:"
    INDEX 01 07:17:64
  TRACK 342 AUDIO
    TITLE "31:cjc135_6018"
    INDEX 01 07:18:15
  TRACK 343 AUDIO
    TITLE "0:"
    INDEX 01 07:20:41
  TRACK 344 AUDIO
    TITLE "32:cjc135_6019"
    INDEX 01 07:20:65
  TRACK 345 AUDIO
    TITLE "0:"
    INDEX 01 07:23:16
  TRACK 346 AUDIO
    TITLE "29:cjc135_6020"
    INDEX 01 07:24:15
  TRACK 347 AUDIO
    TITLE "0:"
    INDEX 01 07:25:29
  TRACK 348 AUDIO
    TITLE "30:cjc135_6021"
    INDEX 01 07:26:05
  TRACK 349 AUDIO
    TITLE "0:"
    INDEX 01 07:27:55
  TRACK 350 AUDIO
    TITLE "31:cjc135_6022"
    INDEX 01 07:28:07
  TRACK 351 AUDIO
    TITLE "0:"
    INDEX 01 07:29:64
  TRACK 352 AUDIO
    TITLE "32:cjc135_6023"
    INDEX 01 07:30:16
  TRACK 353 AUDIO
    TITLE "0:"
    INDEX 01 07:32:01
  TRACK 354 AUDIO
    TITLE "29:cjc135_6024"
    INDEX 01 07:33:03
  TRACK 355 AUDIO
    TITLE "0:"
    INDEX 01 07:34:20
  TRACK 356 AUDIO
    TITLE "30:cjc135_6025"
    INDEX 01 07:34:67
  TRACK 357 AUDIO
    TITLE "0:"
    INDEX 01 07:36:40
  TRACK 358 AUDIO
    TITLE "31:cjc135_6026"
    INDEX 01 07:36:68
  TRACK 359 AUDIO
    TITLE "0:"
    INDEX 01 07:38:31
  TRACK 360 AUDIO
    TITLE "32:cjc135_6027"
    INDEX 01 07:38:57
  TRACK 361 AUDIO
    TITLE "0:"
    INDEX 01 07:40:22
  TRACK 362 AUDIO
    TITLE "29:cjc135_6028"
    INDEX 01 07:41:22
  TRACK 363 AUDIO
    TITLE "0:"
    INDEX 01 07:42:37
  TRACK 364 AUDIO
    TITLE "30:cjc135_6029"
    INDEX 01 07:43:07
  TRACK 365 AUDIO
    TITLE "0:"
    INDEX 01 07:44:44
  TRACK 366 AUDIO
    TITLE "31:cjc135_6030"
    INDEX 01 07:44:69
  TRACK 367 AUDIO
    TITLE "0:"
    INDEX 01 07:46:52
  TRACK 368 AUDIO
    TITLE "32:cjc135_6031"
    INDEX 01 07:47:03
  TRACK 369 AUDIO
    TITLE "0:"
    INDEX 01 07:48:61
  TRACK 370 AUDIO
    TITLE "29:cjc135_6032"
    INDEX 01 07:49:60
  TRACK 371 AUDIO
    TITLE "0:"
    INDEX 01 07:51:22
  TRACK 372 AUDIO
    TITLE "30:cjc135_6033"
    INDEX 01 07:51:73
  TRACK 373 AUDIO
    TITLE "0:"
    INDEX 01 07:54:40
  TRACK 374 AUDIO
    TITLE "31:cjc135_6034"
    INDEX 01 07:54:66
  TRACK 375 AUDIO
    TITLE "0:"
    INDEX 01 07:57:07
  TRACK 376 AUDIO
    TITLE "32:cjc135_6035"
    INDEX 01 07:57:34
  TRACK 377 AUDIO
    TITLE "0:"
    INDEX 01 07:59:53
  TRACK 378 AUDIO
    TITLE "29:cjc135_6036"
    INDEX 01 08:00:54
  TRACK 379 AUDIO
    TITLE "0:"
    INDEX 01 08:01:62
  TRACK 380 AUDIO
    TITLE "30:cjc135_6037"
    INDEX 01 08:02:38
  TRACK 381 AUDIO
    TITLE "0:"
    INDEX 01 08:06:02
  TRACK 382 AUDIO
    TITLE "31:cjc135_6038"
    INDEX 01 08:06:28
  TRACK 383 AUDIO
    TITLE "0:"
    INDEX 01 08:09:38
  TRACK 384 AUDIO
    TITLE "32:cjc135_6039"
    INDEX 01 08:09:65
  TRACK 385 AUDIO
    TITLE "0:"
    INDEX 01 08:13:02
  TRACK 386 AUDIO
    TITLE "29:cjc135_6040"
    INDEX 01 08:14:02
  TRACK 387 AUDIO
    TITLE "0:"
    INDEX 01 08:15:13
  TRACK 388 AUDIO
    TITLE "30:cjc135_6041"
    INDEX 01 08:15:66
  TRACK 389 AUDIO
    TITLE "0:"
    INDEX 01 08:17:37
  TRACK 390 AUDIO
    TITLE "31:cjc135_6042"
    INDEX 01 08:17:65
  TRACK 391 AUDIO
    TITLE "0:"
    INDEX 01 08:19:58
  TRACK 392 AUDIO
    TITLE "32:cjc135_6043"
    INDEX 01 08:20:10
  TRACK 393 AUDIO
    TITLE "0:"
    INDEX 01 08:22:01
  TRACK 394 AUDIO
    TITLE "29:cjc135_6044"
    INDEX 01 08:23:04
  TRACK 395 AUDIO
    TITLE "0:"
    INDEX 01 08:24:18
  TRACK 396 AUDIO
    TITLE "30:cjc135_6045"
    INDEX 01 08:24:65
  TRACK 397 AUDIO
    TITLE "0:"
    INDEX 01 08:28:19
  TRACK 398 AUDIO
    TITLE "31:cjc135_6046"
    INDEX 01 08:28:45
  TRACK 399 AUDIO
    TITLE "0:"
    INDEX 01 08:31:22
  TRACK 400 AUDIO
    TITLE "32:cjc135_6047"
    INDEX 01 08:31:49
  TRACK 401 AUDIO
    TITLE "0:"
    INDEX 01 08:34:28
  TRACK 402 AUDIO
    TITLE "29:cjc135_6048"
    INDEX 01 08:35:29
  TRACK 403 AUDIO
    TITLE "0:"
    INDEX 01 08:36:40
  TRACK 404 AUDIO
    TITLE "30:cjc135_6049"
    INDEX 01 08:37:14
  TRACK 405 AUDIO
    TITLE "0:"
    INDEX 01 08:39:25
  TRACK 406 AUDIO
    TITLE "31:cjc135_6050"
    INDEX 01 08:39:52
  TRACK 407 AUDIO
    TITLE "0:"
    INDEX 01 08:41:28
  TRACK 408 AUDIO
    TITLE "32:cjc135_6051"
    INDEX 01 08:41:55
  TRACK 409 AUDIO
    TITLE "0:"
    INDEX 01 08:43:31
  TRACK 410 AUDIO
    TITLE "29:cjc135_6052"
    INDEX 01 08:44:32
  TRACK 411 AUDIO
    TITLE "0:"
    INDEX 01 08:45:43
  TRACK 412 AUDIO
    TITLE "30:cjc135_6053"
    INDEX 01 08:46:17
  TRACK 413 AUDIO
    TITLE "0:"
    INDEX 01 08:49:04
  TRACK 414 AUDIO
    TITLE "31:cjc135_6054"
    INDEX 01 08:49:27
  TRACK 415 AUDIO
    TITLE "0:"
    INDEX 01 08:51:56
  TRACK 416 AUDIO
    TITLE "32:cjc135_6055"
    INDEX 01 08:52:04
  TRACK 417 AUDIO
    TITLE "0:"
    INDEX 01 08:54:34
  TRACK 418 AUDIO
    TITLE "29:cjc135_6056"
    INDEX 01 08:55:32
  TRACK 419 AUDIO
    TITLE "0:"
    INDEX 01 08:56:37
  TRACK 420 AUDIO
    TITLE "30:cjc135_6057"
    INDEX 01 08:57:13
  TRACK 421 AUDIO
    TITLE "0:"
    INDEX 01 08:59:34
  TRACK 422 AUDIO
    TITLE "31:cjc135_6058"
    INDEX 01 08:59:59
  TRACK 423 AUDIO
    TITLE "0:"
    INDEX 01 09:02:71
  TRACK 424 AUDIO
    TITLE "32:cjc135_6059"
    INDEX 01 09:03:20
  TRACK 425 AUDIO
    TITLE "0:"
    INDEX 01 09:06:32
  TRACK 426 AUDIO
    TITLE "29:cjc135_6060"
    INDEX 01 09:07:29
  TRACK 427 AUDIO
    TITLE "0:"
    INDEX 01 09:08:31
  TRACK 428 AUDIO
    TITLE "30:cjc135_6061"
    INDEX 01 09:09:07
  TRACK 429 AUDIO
    TITLE "0:"
    INDEX 01 09:10:67
  TRACK 430 AUDIO
    TITLE "31:cjc135_6062"
    INDEX 01 09:11:19
  TRACK 431 AUDIO
    TITLE "0:"
    INDEX 01 09:12:73
  TRACK 432 AUDIO
    TITLE "32:cjc135_6063"
    INDEX 01 09:13:24
  TRACK 433 AUDIO
    TITLE "0:"
    INDEX 01 09:15:05
  TRACK 434 AUDIO
    TITLE "29:cjc135_6064"
    INDEX 01 09:16:05
  TRACK 435 AUDIO
    TITLE "0:"
    INDEX 01 09:17:02
  TRACK 436 AUDIO
    TITLE "30:cjc135_6065"
    INDEX 01 09:17:53
  TRACK 437 AUDIO
    TITLE "0:"
    INDEX 01 09:21:25
  TRACK 438 AUDIO
    TITLE "31:cjc135_6066"
    INDEX 01 09:21:49
  TRACK 439 AUDIO
    TITLE "0:"
    INDEX 01 09:24:14
  TRACK 440 AUDIO
    TITLE "32:cjc135_6067"
    INDEX 01 09:24:37
  TRACK 441 AUDIO
    TITLE "0:"
    INDEX 01 09:26:74
  TRACK 442 AUDIO
    TITLE "29:cjc135_6068"
    INDEX 01 09:28:00
  TRACK 443 AUDIO
    TITLE "0:"
    INDEX 01 09:29:01
  TRACK 444 AUDIO
    TITLE "30:cjc135_6069"
    INDEX 01 09:29:50
  TRACK 445 AUDIO
    TITLE "0:"
    INDEX 01 09:31:73
  TRACK 446 AUDIO
    TITLE "31:cjc135_6070"
    INDEX 01 09:32:21
  TRACK 447 AUDIO
    TITLE "0:"
    INDEX 01 09:34:10
  TRACK 448 AUDIO
    TITLE "32:cjc135_6071"
    INDEX 01 09:34:34
  TRACK 449 AUDIO
    TITLE "0:"
    INDEX 01 09:36:23
  TRACK 450 AUDIO
    TITLE "29:cjc135_6072"
    INDEX 01 09:37:22
  TRACK 451 AUDIO
    TITLE "0:"
    INDEX 01 09:38:36
  TRACK 452 AUDIO
    TITLE "30:cjc135_6073"
    INDEX 01 09:39:12
  TRACK 453 AUDIO
    TITLE "0:"
    INDEX 01 09:41:05
  TRACK 454 AUDIO
    TITLE "31:cjc135_6074"
    INDEX 01 09:41:32
  TRACK 455 AUDIO
    TITLE "0:"
    INDEX 01 09:43:13
  TRACK 456 AUDIO
    TITLE "32:cjc135_6075"
    INDEX 01 09:43:39
  TRACK 457 AUDIO
    TITLE "0:"
    INDEX 01 09:45:22
  TRACK 458 AUDIO
    TITLE "29:cjc135_6076"
    INDEX 01 09:46:21
  TRACK 459 AUDIO
    TITLE "0:"
    INDEX 01 09:47:31
  TRACK 460 AUDIO
    TITLE "30:cjc135_6077"
    INDEX 01 09:48:05
  TRACK 461 AUDIO
    TITLE "0:"
    INDEX 01 09:49:43
  TRACK 462 AUDIO
    TITLE "31:cjc135_6078"
    INDEX 01 09:49:65
  TRACK 463 AUDIO
    TITLE "0:"
    INDEX 01 09:51:40
  TRACK 464 AUDIO
    TITLE "32:cjc135_6079"
    INDEX 01 09:51:62
  TRACK 465 AUDIO
    TITLE "0:"
    INDEX 01 09:53:37
  TRACK 466 AUDIO
    TITLE "29:cjc135_6080"
    INDEX 01 09:54:37
  TRACK 467 AUDIO
    TITLE "0:"
    INDEX 01 09:55:56
  TRACK 468 AUDIO
    TITLE "30:cjc135_6081"
    INDEX 01 09:56:30
  TRACK 469 AUDIO
    TITLE "0:"
    INDEX 01 09:58:23
  TRACK 470 AUDIO
    TITLE "31:cjc135_6082"
    INDEX 01 09:58:48
  TRACK 471 AUDIO
    TITLE "0:"
    INDEX 01 10:00:31
  TRACK 472 AUDIO
    TITLE "32:cjc135_6083"
    INDEX 01 10:00:57
  TRACK 473 AUDIO
    TITLE "0:"
    INDEX 01 10:02:40
  TRACK 474 AUDIO
    TITLE "29:cjc135_6084"
    INDEX 01 10:03:41
  TRACK 475 AUDIO
    TITLE "0:"
    INDEX 01 10:04:53
  TRACK 476 AUDIO
    TITLE "30:cjc135_6085"
    INDEX 01 10:05:31
  TRACK 477 AUDIO
    TITLE "0:"
    INDEX 01 10:07:67
  TRACK 478 AUDIO
    TITLE "31:cjc135_6086"
    INDEX 01 10:08:23
  TRACK 479 AUDIO
    TITLE "0:"
    INDEX 01 10:10:26
  TRACK 480 AUDIO
    TITLE "32:cjc135_6087"
    INDEX 01 10:10:59
  TRACK 481 AUDIO
    TITLE "0:"
    INDEX 01 10:12:58
  TRACK 482 AUDIO
    TITLE "29:cjc135_6088"
    INDEX 01 10:13:71
  TRACK 483 AUDIO
    TITLE "0:"
    INDEX 01 10:15:23
  TRACK 484 AUDIO
    TITLE "30:cjc135_6089"
    INDEX 01 10:15:72
  TRACK 485 AUDIO
    TITLE "0:"
    INDEX 01 10:17:55
  TRACK 486 AUDIO
    TITLE "31:cjc135_6090"
    INDEX 01 10:18:04
  TRACK 487 AUDIO
    TITLE "0:"
    INDEX 01 10:20:16
  TRACK 488 AUDIO
    TITLE "32:cjc135_6091"
    INDEX 01 10:20:42
  TRACK 489 AUDIO
    TITLE "0:"
    INDEX 01 10:22:53
  TRACK 490 AUDIO
    TITLE "29:cjc135_6092"
    INDEX 01 10:23:54
  TRACK 491 AUDIO
    TITLE "0:"
    INDEX 01 10:24:65
  TRACK 492 AUDIO
    TITLE "30:cjc135_6093"
    INDEX 01 10:25:39
  TRACK 493 AUDIO
    TITLE "0:"
    INDEX 01 10:27:67
  TRACK 494 AUDIO
    TITLE "31:cjc135_6094"
    INDEX 01 10:28:18
  TRACK 495 AUDIO
    TITLE "0:"
    INDEX 01 10:30:38
  TRACK 496 AUDIO
    TITLE "32:cjc135_6095"
    INDEX 01 10:30:62
  TRACK 497 AUDIO
    TITLE "0:"
    INDEX 01 10:33:07
  TRACK 498 AUDIO
    TITLE "29:cjc135_6096"
    INDEX 01 10:34:07
  TRACK 499 AUDIO
    TITLE "0:"
    INDEX 01 10:35:28
  TRACK 500 AUDIO
    TITLE "30:cjc135_6097"
    INDEX 01 10:36:06
  TRACK 501 AUDIO
    TITLE "0:"
    INDEX 01 10:38:10
  TRACK 502 AUDIO
    TITLE "31:cjc135_6098"
    INDEX 01 10:38:34
  TRACK 503 AUDIO
    TITLE "0:"
    INDEX 01 10:40:17
  TRACK 504 AUDIO
    TITLE "32:cjc135_6099"
    INDEX 01 10:40:43
  TRACK 505 AUDIO
    TITLE "0:"
    INDEX 01 10:42:26
  TRACK 506 AUDIO
    TITLE "29:cjc135_6100"
    INDEX 01 10:43:25
  TRACK 507 AUDIO
    TITLE "0:"
    INDEX 01 10:44:31
  TRACK 508 AUDIO
    TITLE "30:cjc135_6101"
    INDEX 01 10:45:03
  TRACK 509 AUDIO
    TITLE "0:"
    INDEX 01 10:47:62
  TRACK 510 AUDIO
    TITLE "31:cjc135_6102"
    INDEX 01 10:48:13
  TRACK 511 AUDIO
    TITLE "0:"
    INDEX 01 10:51:01
  TRACK 512 AUDIO
    TITLE "32:cjc135_6103"
    INDEX 01 10:51:27
  TRACK 513 AUDIO
    TITLE "0:"
    INDEX 01 10:54:17
  TRACK 514 AUDIO
    TITLE "29:cjc135_6104"
    INDEX 01 10:55:17
  TRACK 515 AUDIO
    TITLE "0:"
    INDEX 01 10:56:28
  TRACK 516 AUDIO
    TITLE "30:cjc135_6105"
    INDEX 01 10:57:04
  TRACK 517 AUDIO
    TITLE "0:"
    INDEX 01 10:59:44
  TRACK 518 AUDIO
    TITLE "31:cjc135_6106"
    INDEX 01 10:59:69
  TRACK 519 AUDIO
    TITLE "0:"
    INDEX 01 11:02:25
  TRACK 520 AUDIO
    TITLE "32:cjc135_6107"
    INDEX 01 11:02:52
  TRACK 521 AUDIO
    TITLE "0:"
    INDEX 01 11:05:07
  TRACK 522 AUDIO
    TITLE "29:cjc135_6108"
    INDEX 01 11:06:09
  TRACK 523 AUDIO
    TITLE "0:"
    INDEX 01 11:07:14
  TRACK 524 AUDIO
    TITLE "30:cjc135_6109"
    INDEX 01 11:07:69
  TRACK 525 AUDIO
    TITLE "0:"
    INDEX 01 11:10:05
  TRACK 526 AUDIO
    TITLE "31:cjc135_6110"
    INDEX 01 11:10:32
  TRACK 527 AUDIO
    TITLE "0:"
    INDEX 01 11:12:50
  TRACK 528 AUDIO
    TITLE "32:cjc135_6111"
    INDEX 01 11:12:74
  TRACK 529 AUDIO
    TITLE "0:"
    INDEX 01 11:15:19
  TRACK 530 AUDIO
    TITLE "29:cjc135_6112"
    INDEX 01 11:16:17
  TRACK 531 AUDIO
    TITLE "0:"
    INDEX 01 11:17:46
  TRACK 532 AUDIO
    TITLE "30:cjc135_6113"
    INDEX 01 11:18:22
  TRACK 533 AUDIO
    TITLE "0:"
    INDEX 01 11:20:01
  TRACK 534 AUDIO
    TITLE "31:cjc135_6114"
    INDEX 01 11:20:30
  TRACK 535 AUDIO
    TITLE "0:"
    INDEX 01 11:22:23
  TRACK 536 AUDIO
    TITLE "32:cjc135_6115"
    INDEX 01 11:22:47
  TRACK 537 AUDIO
    TITLE "0:"
    INDEX 01 11:24:40
  TRACK 538 AUDIO
    TITLE "29:cjc135_6116"
    INDEX 01 11:25:39
  TRACK 539 AUDIO
    TITLE "0:"
    INDEX 01 11:26:56
  TRACK 540 AUDIO
    TITLE "30:cjc135_6117"
    INDEX 01 11:27:32
  TRACK 541 AUDIO
    TITLE "0:"
    INDEX 01 11:29:25
  TRACK 542 AUDIO
    TITLE "31:cjc135_6118"
    INDEX 01 11:29:53
  TRACK 543 AUDIO
    TITLE "0:"
    INDEX 01 11:31:58
  TRACK 544 AUDIO
    TITLE "32:cjc135_6119"
    INDEX 01 11:32:12
  TRACK 545 AUDIO
    TITLE "0:"
    INDEX 01 11:34:19
  TRACK 546 AUDIO
    TITLE "29:cjc135_6120"
    INDEX 01 11:35:22
  TRACK 547 AUDIO
    TITLE "0:"
    INDEX 01 11:36:43
  TRACK 548 AUDIO
    TITLE "30:cjc135_6121"
    INDEX 01 11:37:17
  TRACK 549 AUDIO
    TITLE "0:"
    INDEX 01 11:39:67
  TRACK 550 AUDIO
    TITLE "31:cjc135_6122"
    INDEX 01 11:40:17
  TRACK 551 AUDIO
    TITLE "0:"
    INDEX 01 11:43:04
  TRACK 552 AUDIO
    TITLE "32:cjc135_6123"
    INDEX 01 11:43:29
  TRACK 553 AUDIO
    TITLE "0:"
    INDEX 01 11:46:16
  TRACK 554 AUDIO
    TITLE "29:cjc135_6124"
    INDEX 01 11:47:17
  TRACK 555 AUDIO
    TITLE "0:"
    INDEX 01 11:48:29
  TRACK 556 AUDIO
    TITLE "30:cjc135_6125"
    INDEX 01 11:49:05
  TRACK 557 AUDIO
    TITLE "0:"
    INDEX 01 11:50:55
  TRACK 558 AUDIO
    TITLE "31:cjc135_6126"
    INDEX 01 11:51:05
  TRACK 559 AUDIO
    TITLE "0:"
    INDEX 01 11:52:62
  TRACK 560 AUDIO
    TITLE "32:cjc135_6127"
    INDEX 01 11:53:10
  TRACK 561 AUDIO
    TITLE "0:"
    INDEX 01 11:54:65
  TRACK 562 AUDIO
    TITLE "29:cjc135_6128"
    INDEX 01 11:55:64
  TRACK 563 AUDIO
    TITLE "0:"
    INDEX 01 11:56:73
  TRACK 564 AUDIO
    TITLE "30:cjc135_6129"
    INDEX 01 11:57:49
  TRACK 565 AUDIO
    TITLE "0:"
    INDEX 01 11:59:58
  TRACK 566 AUDIO
    TITLE "31:cjc135_6130"
    INDEX 01 12:00:10
  TRACK 567 AUDIO
    TITLE "0:"
    INDEX 01 12:01:61
  TRACK 568 AUDIO
    TITLE "32:cjc135_6131"
    INDEX 01 12:02:13
  TRACK 569 AUDIO
    TITLE "0:"
    INDEX 01 12:03:62
  TRACK 570 AUDIO
    TITLE "29:cjc135_6132"
    INDEX 01 12:04:65
  TRACK 571 AUDIO
    TITLE "0:"
    INDEX 01 12:05:68
  TRACK 572 AUDIO
    TITLE "30:cjc135_6133"
    INDEX 01 12:06:44
  TRACK 573 AUDIO
    TITLE "0:"
    INDEX 01 12:11:65
  TRACK 574 AUDIO
    TITLE "31:cjc135_6134"
    INDEX 01 12:12:19
  TRACK 575 AUDIO
    TITLE "0:"
    INDEX 01 12:15:26
  TRACK 576 AUDIO
    TITLE "32:cjc135_6135"
    INDEX 01 12:15:53
  TRACK 577 AUDIO
    TITLE "0:"
    INDEX 01 12:18:61
  TRACK 578 AUDIO
    TITLE "29:cjc135_6136"
    INDEX 01 12:19:59
  TRACK 579 AUDIO
    TITLE "0:"
    INDEX 01 12:20:70
  TRACK 580 AUDIO
    TITLE "30:cjc135_6137"
    INDEX 01 12:21:48
  TRACK 581 AUDIO
    TITLE "0:"
    INDEX 01 12:23:25
  TRACK 582 AUDIO
    TITLE "31:cjc135_6138"
    INDEX 01 12:23:52
  TRACK 583 AUDIO
    TITLE "0:"
    INDEX 01 12:25:73
  TRACK 584 AUDIO
    TITLE "32:cjc135_6139"
    INDEX 01 12:26:25
  TRACK 585 AUDIO
    TITLE "0:"
    INDEX 01 12:28:46
  TRACK 586 AUDIO
    TITLE "29:cjc135_6140"
    INDEX 01 12:29:45
  TRACK 587 AUDIO
    TITLE "0:"
    INDEX 01 12:30:56
  TRACK 588 AUDIO
    TITLE "30:cjc135_6141"
    INDEX 01 12:31:30
  TRACK 589 AUDIO
    TITLE "0:"
    INDEX 01 12:33:59
  TRACK 590 AUDIO
    TITLE "31:cjc135_6142"
    INDEX 01 12:34:09
  TRACK 591 AUDIO
    TITLE "0:"
    INDEX 01 12:36:22
  TRACK 592 AUDIO
    TITLE "32:cjc135_6143"
    INDEX 01 12:36:47
  TRACK 593 AUDIO
    TITLE "0:"
    INDEX 01 12:38:58
  TRACK 594 AUDIO
    TITLE "29:cjc135_6144"
    INDEX 01 12:39:59
  TRACK 595 AUDIO
    TITLE "0:"
    INDEX 01 12:40:71
  TRACK 596 AUDIO
    TITLE "30:cjc135_6145"
    INDEX 01 12:41:46
  TRACK 597 AUDIO
    TITLE "0:"
    INDEX 01 12:45:11
  TRACK 598 AUDIO
    TITLE "31:cjc135_6146"
    INDEX 01 12:45:36
  TRACK 599 AUDIO
    TITLE "0:"
    INDEX 01 12:48:01
  TRACK 600 AUDIO
    TITLE "32:cjc135_6147"
    INDEX 01 12:48:25
  TRACK 601 AUDIO
    TITLE "0:"
    INDEX 01 12:50:65
  TRACK 602 AUDIO
    TITLE "29:cjc135_6148"
    INDEX 01 12:51:61
  TRACK 603 AUDIO
    TITLE "0:"
    INDEX 01 12:52:62
  TRACK 604 AUDIO
    TITLE "30:cjc135_6149"
    INDEX 01 12:53:38
  TRACK 605 AUDIO
    TITLE "0:"
    INDEX 01 12:56:17
  TRACK 606 AUDIO
    TITLE "31:cjc135_6150"
    INDEX 01 12:56:42
  TRACK 607 AUDIO
    TITLE "0:"
    INDEX 01 12:58:41
  TRACK 608 AUDIO
    TITLE "32:cjc135_6151"
    INDEX 01 12:58:65
  TRACK 609 AUDIO
    TITLE "0:"
    INDEX 01 13:00:65
  TRACK 610 AUDIO
    TITLE "29:cjc135_6152"
    INDEX 01 13:01:63
  TRACK 611 AUDIO
    TITLE "0:"
    INDEX 01 13:02:64
  TRACK 612 AUDIO
    TITLE "30:cjc135_6153"
    INDEX 01 13:03:40
  TRACK 613 AUDIO
    TITLE "0:"
    INDEX 01 13:06:58
  TRACK 614 AUDIO
    TITLE "31:cjc135_6154"
    INDEX 01 13:07:05
  TRACK 615 AUDIO
    TITLE "0:"
    INDEX 01 13:10:07
  TRACK 616 AUDIO
    TITLE "32:cjc135_6155"
    INDEX 01 13:10:29
  TRACK 617 AUDIO
    TITLE "0:"
    INDEX 01 13:13:31
  TRACK 618 AUDIO
    TITLE "29:cjc135_6156"
    INDEX 01 13:14:30
  TRACK 619 AUDIO
    TITLE "0:"
    INDEX 01 13:15:34
  TRACK 620 AUDIO
    TITLE "30:cjc135_6157"
    INDEX 01 13:16:10
  TRACK 621 AUDIO
    TITLE "0:"
    INDEX 01 13:17:40
  TRACK 622 AUDIO
    TITLE "31:cjc135_6158"
    INDEX 01 13:17:68
  TRACK 623 AUDIO
    TITLE "0:"
    INDEX 01 13:19:29
  TRACK 624 AUDIO
    TITLE "32:cjc135_6159"
    INDEX 01 13:19:55
  TRACK 625 AUDIO
    TITLE "0:"
    INDEX 01 13:21:17
  TRACK 626 AUDIO
    TITLE "29:cjc135_6160"
    INDEX 01 13:22:18
  TRACK 627 AUDIO
    TITLE "0:"
    INDEX 01 13:23:23
  TRACK 628 AUDIO
    TITLE "30:cjc135_6161"
    INDEX 01 13:23:72
  TRACK 629 AUDIO
    TITLE "0:"
    INDEX 01 13:26:47
  TRACK 630 AUDIO
    TITLE "31:cjc135_6162"
    INDEX 01 13:26:73
  TRACK 631 AUDIO
    TITLE "0:"
    INDEX 01 13:29:34
  TRACK 632 AUDIO
    TITLE "32:cjc135_6163"
    INDEX 01 13:29:59
  TRACK 633 AUDIO
    TITLE "0:"
    INDEX 01 13:32:22
  TRACK 634 AUDIO
    TITLE "29:cjc135_6164"
    INDEX 01 13:33:22
  TRACK 635 AUDIO
    TITLE "0:"
    INDEX 01 13:34:19
  TRACK 636 AUDIO
    TITLE "30:cjc135_6165"
    INDEX 01 13:34:70
  TRACK 637 AUDIO
    TITLE "0:"
    INDEX 01 13:37:70
  TRACK 638 AUDIO
    TITLE "31:cjc135_6166"
    INDEX 01 13:38:19
  TRACK 639 AUDIO
    TITLE "0:"
    INDEX 01 13:40:47
  TRACK 640 AUDIO
    TITLE "32:cjc135_6167"
    INDEX 01 13:40:69
  TRACK 641 AUDIO
    TITLE "0:"
    INDEX 01 13:43:22
  TRACK 642 AUDIO
    TITLE "29:cjc135_6168"
    INDEX 01 13:44:20
  TRACK 643 AUDIO
    TITLE "0:"
    INDEX 01 13:45:46
  TRACK 644 AUDIO
    TITLE "30:cjc135_6169"
    INDEX 01 13:46:22
  TRACK 645 AUDIO
    TITLE "0:"
    INDEX 01 13:48:31
  TRACK 646 AUDIO
    TITLE "31:cjc135_6170"
    INDEX 01 13:48:55
  TRACK 647 AUDIO
    TITLE "0:"
    INDEX 01 13:50:61
  TRACK 648 AUDIO
    TITLE "32:cjc135_6171"
    INDEX 01 13:51:10
  TRACK 649 AUDIO
    TITLE "0:"
    INDEX 01 13:53:17
  TRACK 650 AUDIO
    TITLE "29:cjc135_6172"
    INDEX 01 13:54:18
  TRACK 651 AUDIO
    TITLE "0:"
    INDEX 01 13:55:41
  TRACK 652 AUDIO
    TITLE "30:cjc135_6173"
    INDEX 01 13:56:17
  TRACK 653 AUDIO
    TITLE "0:"
    INDEX 01 13:58:04
  TRACK 654 AUDIO
    TITLE "31:cjc135_6174"
    INDEX 01 13:58:31
  TRACK 655 AUDIO
    TITLE "0:"
    INDEX 01 14:00:34
  TRACK 656 AUDIO
    TITLE "32:cjc135_6175"
    INDEX 01 14:00:62
  TRACK 657 AUDIO
    TITLE "0:"
    INDEX 01 14:02:65
  TRACK 658 AUDIO
    TITLE "29:cjc135_6176"
    INDEX 01 14:03:68
  TRACK 659 AUDIO
    TITLE "0:"
    INDEX 01 14:05:16
  TRACK 660 AUDIO
    TITLE "30:cjc135_6177"
    INDEX 01 14:05:65
  TRACK 661 AUDIO
    TITLE "0:"
    INDEX 01 14:07:64
  TRACK 662 AUDIO
    TITLE "31:cjc135_6178"
    INDEX 01 14:08:18
  TRACK 663 AUDIO
    TITLE "0:"
    INDEX 01 14:10:68
  TRACK 664 AUDIO
    TITLE "32:cjc135_6179"
    INDEX 01 14:11:16
  TRACK 665 AUDIO
    TITLE "0:"
    INDEX 01 14:13:68
  TRACK 666 AUDIO
    TITLE "29:cjc135_6180"
    INDEX 01 14:14:68
  TRACK 667 AUDIO
    TITLE "0:"
    INDEX 01 14:16:08
  TRACK 668 AUDIO
    TITLE "30:cjc135_6181"
    INDEX 01 14:16:59
  TRACK 669 AUDIO
    TITLE "0:"
    INDEX 01 14:18:58
  TRACK 670 AUDIO
    TITLE "31:cjc135_6182"
    INDEX 01 14:19:10
  TRACK 671 AUDIO
    TITLE "0:"
    INDEX 01 14:21:40
  TRACK 672 AUDIO
    TITLE "32:cjc135_6183"
    INDEX 01 14:21:68
  TRACK 673 AUDIO
    TITLE "0:"
    INDEX 01 14:24:25
  TRACK 674 AUDIO
    TITLE "29:cjc135_6184"
    INDEX 01 14:25:24
  TRACK 675 AUDIO
    TITLE "0:"
    INDEX 01 14:26:43
  TRACK 676 AUDIO
    TITLE "30:cjc135_6185"
    INDEX 01 14:27:19
  TRACK 677 AUDIO
    TITLE "0:"
    INDEX 01 14:29:46
  TRACK 678 AUDIO
    TITLE "31:cjc135_6186"
    INDEX 01 14:29:69
  TRACK 679 AUDIO
    TITLE "0:"
    INDEX 01 14:32:58
  TRACK 680 AUDIO
    TITLE "32:cjc135_6187"
    INDEX 01 14:33:06
  TRACK 681 AUDIO
    TITLE "0:"
    INDEX 01 14:35:70
  TRACK 682 AUDIO
    TITLE "29:cjc135_6188"
    INDEX 01 14:36:69
  TRACK 683 AUDIO
    TITLE "0:"
    INDEX 01 14:38:41
  TRACK 684 AUDIO
    TITLE "30:cjc135_6189"
    INDEX 01 14:39:15
  TRACK 685 AUDIO
    TITLE "0:"
    INDEX 01 14:41:61
  TRACK 686 AUDIO
    TITLE "31:cjc135_6190"
    INDEX 01 14:42:13
  TRACK 687 AUDIO
    TITLE "0:"
    INDEX 01 14:45:25
  TRACK 688 AUDIO
    TITLE "32:cjc135_6191"
    INDEX 01 14:45:51
  TRACK 689 AUDIO
    TITLE "0:"
    INDEX 01 14:48:61
  TRACK 690 AUDIO
    TITLE "29:cjc135_6192"
    INDEX 01 14:49:62
  TRACK 691 AUDIO
    TITLE "0:"
    INDEX 01 14:50:73
  TRACK 692 AUDIO
    TITLE "30:cjc135_6193"
    INDEX 01 14:51:49
  TRACK 693 AUDIO
    TITLE "0:"
    INDEX 01 14:55:22
  TRACK 694 AUDIO
    TITLE "31:cjc135_6194"
    INDEX 01 14:55:47
  TRACK 695 AUDIO
    TITLE "0:"
    INDEX 01 14:58:43
  TRACK 696 AUDIO
    TITLE "32:cjc135_6195"
    INDEX 01 14:58:69
  TRACK 697 AUDIO
    TITLE "0:"
    INDEX 01 15:01:67
  TRACK 698 AUDIO
    TITLE "29:cjc135_6196"
    INDEX 01 15:02:67
  TRACK 699 AUDIO
    TITLE "0:"
    INDEX 01 15:04:17
  TRACK 700 AUDIO
    TITLE "30:cjc135_6197"
    INDEX 01 15:04:68
  TRACK 701 AUDIO
    TITLE "0:"
    INDEX 01 15:07:40
  TRACK 702 AUDIO
    TITLE "31:cjc135_6198"
    INDEX 01 15:07:64
  TRACK 703 AUDIO
    TITLE "0:"
    INDEX 01 15:10:49
  TRACK 704 AUDIO
    TITLE "32:cjc135_6199"
    INDEX 01 15:10:74
  TRACK 705 AUDIO
    TITLE "0:"
    INDEX 01 15:13:61
  TRACK 706 AUDIO
    TITLE "29:cjc135_6200"
    INDEX 01 15:14:62
  TRACK 707 AUDIO
    TITLE "0:"
    INDEX 01 15:16:02
  TRACK 708 AUDIO
    TITLE "30:cjc135_6201"
    INDEX 01 15:16:49
  TRACK 709 AUDIO
    TITLE "0:"
    INDEX 01 15:18:52
  TRACK 710 AUDIO
    TITLE "31:cjc135_6202"
    INDEX 01 15:19:03
  TRACK 711 AUDIO
    TITLE "0:"
    INDEX 01 15:20:55
  TRACK 712 AUDIO
    TITLE "32:cjc135_6203"
    INDEX 01 15:21:07
  TRACK 713 AUDIO
    TITLE "0:"
    INDEX 01 15:22:62
  TRACK 714 AUDIO
    TITLE "29:cjc135_6204"
    INDEX 01 15:23:63
  TRACK 715 AUDIO
    TITLE "0:"
    INDEX 01 15:25:05
  TRACK 716 AUDIO
    TITLE "30:cjc135_6205"
    INDEX 01 15:25:50
  TRACK 717 AUDIO
    TITLE "0:"
    INDEX 01 15:27:55
  TRACK 718 AUDIO
    TITLE "31:cjc135_6206"
    INDEX 01 15:28:07
  TRACK 719 AUDIO
    TITLE "0:"
    INDEX 01 15:30:10
  TRACK 720 AUDIO
    TITLE "32:cjc135_6207"
    INDEX 01 15:30:36
  TRACK 721 AUDIO
    TITLE "0:"
    INDEX 01 15:32:35
  TRACK 722 AUDIO
    TITLE "29:cjc135_6208"
    INDEX 01 15:33:38
  TRACK 723 AUDIO
    TITLE "0:"
    INDEX 01 15:34:55
  TRACK 724 AUDIO
    TITLE "30:cjc135_6209"
    INDEX 01 15:35:31
  TRACK 725 AUDIO
    TITLE "0:"
    INDEX 01 15:37:40
  TRACK 726 AUDIO
    TITLE "31:cjc135_6210"
    INDEX 01 15:37:65
  TRACK 727 AUDIO
    TITLE "0:"
    INDEX 01 15:39:44
  TRACK 728 AUDIO
    TITLE "32:cjc135_6211"
    INDEX 01 15:39:70
  TRACK 729 AUDIO
    TITLE "0:"
    INDEX 01 15:41:49
  TRACK 730 AUDIO
    TITLE "29:cjc135_6212"
    INDEX 01 15:42:47
  TRACK 731 AUDIO
    TITLE "0:"
    INDEX 01 15:43:46
  TRACK 732 AUDIO
    TITLE "30:cjc135_6213"
    INDEX 01 15:44:28
  TRACK 733 AUDIO
    TITLE "0:"
    INDEX 01 15:46:37
  TRACK 734 AUDIO
    TITLE "31:cjc135_6214"
    INDEX 01 15:46:60
  TRACK 735 AUDIO
    TITLE "0:"
    INDEX 01 15:49:23
  TRACK 736 AUDIO
    TITLE "32:cjc135_6215"
    INDEX 01 15:49:45
  TRACK 737 AUDIO
    TITLE "0:"
    INDEX 01 15:52:10
  TRACK 738 AUDIO
    TITLE "29:cjc135_6216"
    INDEX 01 15:53:09
  TRACK 739 AUDIO
    TITLE "0:"
    INDEX 01 15:54:13
  TRACK 740 AUDIO
    TITLE "30:cjc135_6217"
    INDEX 01 15:54:64
  TRACK 741 AUDIO
    TITLE "0:"
    INDEX 01 15:56:64
  TRACK 742 AUDIO
    TITLE "31:cjc135_6218"
    INDEX 01 15:57:15
  TRACK 743 AUDIO
    TITLE "0:"
    INDEX 01 15:58:50
  TRACK 744 AUDIO
    TITLE "32:cjc135_6219"
    INDEX 01 15:59:00
  TRACK 745 AUDIO
    TITLE "0:"
    INDEX 01 16:00:37
  TRACK 746 AUDIO
    TITLE "29:cjc135_6220"
    INDEX 01 16:01:38
  TRACK 747 AUDIO
    TITLE "0:"
    INDEX 01 16:02:43
  TRACK 748 AUDIO
    TITLE "30:cjc135_6221"
    INDEX 01 16:03:19
  TRACK 749 AUDIO
    TITLE "0:"
    INDEX 01 16:06:04
  TRACK 750 AUDIO
    TITLE "31:cjc135_6222"
    INDEX 01 16:06:31
  TRACK 751 AUDIO
    TITLE "0:"
    INDEX 01 16:08:46
  TRACK 752 AUDIO
    TITLE "32:cjc135_6223"
    INDEX 01 16:08:72
  TRACK 753 AUDIO
    TITLE "0:"
    INDEX 01 16:11:13
  TRACK 754 AUDIO
    TITLE "29:cjc135_6224"
    INDEX 01 16:12:12
  TRACK 755 AUDIO
    TITLE "0:"
    INDEX 01 16:13:26
  TRACK 756 AUDIO
    TITLE "30:cjc135_6225"
    INDEX 01 16:14:00
  TRACK 757 AUDIO
    TITLE "0:"
    INDEX 01 16:15:64
  TRACK 758 AUDIO
    TITLE "31:cjc135_6226"
    INDEX 01 16:16:22
  TRACK 759 AUDIO
    TITLE "0:"
    INDEX 01 16:18:19
  TRACK 760 AUDIO
    TITLE "32:cjc135_6227"
    INDEX 01 16:18:44
  TRACK 761 AUDIO
    TITLE "0:"
    INDEX 01 16:20:41
  TRACK 762 AUDIO
    TITLE "29:cjc135_6228"
    INDEX 01 16:21:43
  TRACK 763 AUDIO
    TITLE "0:"
    INDEX 01 16:22:58
  TRACK 764 AUDIO
    TITLE "30:cjc135_6229"
    INDEX 01 16:23:38
  TRACK 765 AUDIO
    TITLE "0:"
    INDEX 01 16:26:28
  TRACK 766 AUDIO
    TITLE "31:cjc135_6230"
    INDEX 01 16:26:52
  TRACK 767 AUDIO
    TITLE "0:"
    INDEX 01 16:29:07
  TRACK 768 AUDIO
    TITLE "32:cjc135_6231"
    INDEX 01 16:29:33
  TRACK 769 AUDIO
    TITLE "0:"
    INDEX 01 16:31:65
  TRACK 770 AUDIO
    TITLE "29:cjc135_6232"
    INDEX 01 16:32:62
  TRACK 771 AUDIO
    TITLE "0:"
    INDEX 01 16:33:66
  TRACK 772 AUDIO
    TITLE "30:cjc135_6233"
    INDEX 01 16:34:42
  TRACK 773 AUDIO
    TITLE "0:"
    INDEX 01 16:37:14
  TRACK 774 AUDIO
    TITLE "31:cjc135_6234"
    INDEX 01 16:37:40
  TRACK 775 AUDIO
    TITLE "0:"
    INDEX 01 16:40:01
  TRACK 776 AUDIO
    TITLE "32:cjc135_6235"
    INDEX 01 16:40:26
  TRACK 777 AUDIO
    TITLE "0:"
    INDEX 01 16:42:63
  TRACK 778 AUDIO
    TITLE "29:cjc135_6236"
    INDEX 01 16:43:64
  TRACK 779 AUDIO
    TITLE "0:"
    INDEX 01 16:44:73
  TRACK 780 AUDIO
    TITLE "30:cjc135_6237"
    INDEX 01 16:45:49
  TRACK 781 AUDIO
    TITLE "0:"
    INDEX 01 16:47:52
  TRACK 782 AUDIO
    TITLE "31:cjc135_6238"
    INDEX 01 16:48:02
  TRACK 783 AUDIO
    TITLE "0:"
    INDEX 01 16:50:07
  TRACK 784 AUDIO
    TITLE "32:cjc135_6239"
    INDEX 01 16:50:33
  TRACK 785 AUDIO
    TITLE "0:"
    INDEX 01 16:52:37
  TRACK 786 AUDIO
    TITLE "29:cjc135_6240"
    INDEX 01 16:53:37
  TRACK 787 AUDIO
    TITLE "0:"
    INDEX 01 16:54:46
  TRACK 788 AUDIO
    TITLE "30:cjc135_6241"
    INDEX 01 16:55:22
  TRACK 789 AUDIO
    TITLE "0:"
    INDEX 01 16:57:31
  TRACK 790 AUDIO
    TITLE "31:cjc135_6242"
    INDEX 01 16:57:56
  TRACK 791 AUDIO
    TITLE "0:"
    INDEX 01 17:00:04
  TRACK 792 AUDIO
    TITLE "32:cjc135_6243"
    INDEX 01 17:00:29
  TRACK 793 AUDIO
    TITLE "0:"
    INDEX 01 17:02:54
  TRACK 794 AUDIO
    TITLE "29:cjc135_6244"
    INDEX 01 17:03:53
  TRACK 795 AUDIO
    TITLE "0:"
    INDEX 01 17:04:58
  TRACK 796 AUDIO
    TITLE "30:cjc135_6245"
    INDEX 01 17:05:34
  TRACK 797 AUDIO
    TITLE "0:"
    INDEX 01 17:07:70
  TRACK 798 AUDIO
    TITLE "31:cjc135_6246"
    INDEX 01 17:08:23
  TRACK 799 AUDIO
    TITLE "0:"
    INDEX 01 17:10:49
  TRACK 800 AUDIO
    TITLE "32:cjc135_6247"
    INDEX 01 17:10:73
  TRACK 801 AUDIO
    TITLE "0:"
    INDEX 01 17:13:22
